<svg xmlns="http://www.w3.org/2000/svg" width="760" height="420" viewBox="0 0 760 420" font-family="sans-serif" font-size="12">
<rect x="0" y="0" width="760" height="420" fill="#ffffff"/>
<text x="68" y="24" font-size="15" font-weight="bold">W2: SLO attainment vs offered rate, four precisions (3 seeds, min)</text>
<line x1="173.96" y1="44" x2="173.96" y2="364" stroke="#e6e6e6" stroke-width="1"/>
<text x="173.96" y="380" text-anchor="middle">20</text>
<line x1="297.52" y1="44" x2="297.52" y2="364" stroke="#e6e6e6" stroke-width="1"/>
<text x="297.52" y="380" text-anchor="middle">40</text>
<line x1="421.09" y1="44" x2="421.09" y2="364" stroke="#e6e6e6" stroke-width="1"/>
<text x="421.09" y="380" text-anchor="middle">60</text>
<line x1="544.65" y1="44" x2="544.65" y2="364" stroke="#e6e6e6" stroke-width="1"/>
<text x="544.65" y="380" text-anchor="middle">80</text>
<line x1="68" y1="364" x2="590" y2="364" stroke="#e6e6e6" stroke-width="1"/>
<text x="62" y="364" text-anchor="end" dy="4">0</text>
<line x1="68" y1="285.57" x2="590" y2="285.57" stroke="#e6e6e6" stroke-width="1"/>
<text x="62" y="285.57" text-anchor="end" dy="4">0.25</text>
<line x1="68" y1="207.14" x2="590" y2="207.14" stroke="#e6e6e6" stroke-width="1"/>
<text x="62" y="207.14" text-anchor="end" dy="4">0.5</text>
<line x1="68" y1="128.71" x2="590" y2="128.71" stroke="#e6e6e6" stroke-width="1"/>
<text x="62" y="128.71" text-anchor="end" dy="4">0.75</text>
<line x1="68" y1="50.27" x2="590" y2="50.27" stroke="#e6e6e6" stroke-width="1"/>
<text x="62" y="50.27" text-anchor="end" dy="4">1</text>
<line x1="68" y1="364" x2="590" y2="364" stroke="#333" stroke-width="1"/>
<line x1="68" y1="44" x2="68" y2="364" stroke="#333" stroke-width="1"/>
<text x="329" y="406" text-anchor="middle">offered rate (req/s, Poisson)</text>
<text x="16" y="204" text-anchor="middle" transform="rotate(-90 16 204)">SLO attainment (min over seeds)</text>
<line x1="68" y1="65.96" x2="590" y2="65.96" stroke="#888" stroke-width="1" stroke-dasharray="6 4"/>
<text x="586" y="65.96" text-anchor="end" dy="-4" fill="#555">95 % target</text>
<polyline points="96.98,50.27 143.5,50.27 152.83,50.27 162.16,50.56 171.49,50.27 180.75,50.78 190.08,58.33 199.41,100 208.74,364 218.01,364 236.67,364 283.25,364 329.77,364 422.94,364" fill="none" stroke="#1f77b4" stroke-width="2"/>
<circle cx="96.98" cy="50.27" r="2.5" fill="#1f77b4"/>
<circle cx="143.5" cy="50.27" r="2.5" fill="#1f77b4"/>
<circle cx="152.83" cy="50.27" r="2.5" fill="#1f77b4"/>
<circle cx="162.16" cy="50.56" r="2.5" fill="#1f77b4"/>
<circle cx="171.49" cy="50.27" r="2.5" fill="#1f77b4"/>
<circle cx="180.75" cy="50.78" r="2.5" fill="#1f77b4"/>
<circle cx="190.08" cy="58.33" r="2.5" fill="#1f77b4"/>
<circle cx="199.41" cy="100" r="2.5" fill="#1f77b4"/>
<circle cx="208.74" cy="364" r="2.5" fill="#1f77b4"/>
<circle cx="218.01" cy="364" r="2.5" fill="#1f77b4"/>
<circle cx="236.67" cy="364" r="2.5" fill="#1f77b4"/>
<circle cx="283.25" cy="364" r="2.5" fill="#1f77b4"/>
<circle cx="329.77" cy="364" r="2.5" fill="#1f77b4"/>
<circle cx="422.94" cy="364" r="2.5" fill="#1f77b4"/>
<line x1="604" y1="52" x2="626" y2="52" stroke="#1f77b4" stroke-width="2"/>
<text x="632" y="52" dy="4">awq</text>
<polyline points="68,54.92 85.61,50.27 89.13,50.48 92.65,50.27 96.17,50.27 99.69,51.24 103.22,50.27 106.74,51.42 110.26,50.81 113.78,59.11 120.82,129.85 138.43,364 156.04,364 191.26,364" fill="none" stroke="#d62728" stroke-width="2"/>
<circle cx="68" cy="54.92" r="2.5" fill="#d62728"/>
<circle cx="85.61" cy="50.27" r="2.5" fill="#d62728"/>
<circle cx="89.13" cy="50.48" r="2.5" fill="#d62728"/>
<circle cx="92.65" cy="50.27" r="2.5" fill="#d62728"/>
<circle cx="96.17" cy="50.27" r="2.5" fill="#d62728"/>
<circle cx="99.69" cy="51.24" r="2.5" fill="#d62728"/>
<circle cx="103.22" cy="50.27" r="2.5" fill="#d62728"/>
<circle cx="106.74" cy="51.42" r="2.5" fill="#d62728"/>
<circle cx="110.26" cy="50.81" r="2.5" fill="#d62728"/>
<circle cx="113.78" cy="59.11" r="2.5" fill="#d62728"/>
<circle cx="120.82" cy="129.85" r="2.5" fill="#d62728"/>
<circle cx="138.43" cy="364" r="2.5" fill="#d62728"/>
<circle cx="156.04" cy="364" r="2.5" fill="#d62728"/>
<circle cx="191.26" cy="364" r="2.5" fill="#d62728"/>
<line x1="604" y1="70" x2="626" y2="70" stroke="#d62728" stroke-width="2"/>
<text x="632" y="70" dy="4">bf16</text>
<polyline points="117.86,50.27 185.32,50.27 198.79,50.27 212.26,50.27 225.79,78.45 239.26,65.9 252.73,331.79 320.2,364 387.66,364 455.07,364 590,364" fill="none" stroke="#2ca02c" stroke-width="2"/>
<circle cx="117.86" cy="50.27" r="2.5" fill="#2ca02c"/>
<circle cx="185.32" cy="50.27" r="2.5" fill="#2ca02c"/>
<circle cx="198.79" cy="50.27" r="2.5" fill="#2ca02c"/>
<circle cx="212.26" cy="50.27" r="2.5" fill="#2ca02c"/>
<circle cx="225.79" cy="78.45" r="2.5" fill="#2ca02c"/>
<circle cx="239.26" cy="65.9" r="2.5" fill="#2ca02c"/>
<circle cx="252.73" cy="331.79" r="2.5" fill="#2ca02c"/>
<circle cx="320.2" cy="364" r="2.5" fill="#2ca02c"/>
<circle cx="387.66" cy="364" r="2.5" fill="#2ca02c"/>
<circle cx="455.07" cy="364" r="2.5" fill="#2ca02c"/>
<circle cx="590" cy="364" r="2.5" fill="#2ca02c"/>
<line x1="604" y1="88" x2="626" y2="88" stroke="#2ca02c" stroke-width="2"/>
<text x="632" y="88" dy="4">fp8</text>
<polyline points="97.16,50.78 143.87,50.88 153.2,50.27 162.59,50.42 171.92,51.14 181.25,50.27 190.64,50.96 199.97,109.07 209.3,364 218.63,364 237.35,364 284.12,364 330.82,364 424.3,364" fill="none" stroke="#ff7f0e" stroke-width="2"/>
<circle cx="97.16" cy="50.78" r="2.5" fill="#ff7f0e"/>
<circle cx="143.87" cy="50.88" r="2.5" fill="#ff7f0e"/>
<circle cx="153.2" cy="50.27" r="2.5" fill="#ff7f0e"/>
<circle cx="162.59" cy="50.42" r="2.5" fill="#ff7f0e"/>
<circle cx="171.92" cy="51.14" r="2.5" fill="#ff7f0e"/>
<circle cx="181.25" cy="50.27" r="2.5" fill="#ff7f0e"/>
<circle cx="190.64" cy="50.96" r="2.5" fill="#ff7f0e"/>
<circle cx="199.97" cy="109.07" r="2.5" fill="#ff7f0e"/>
<circle cx="209.3" cy="364" r="2.5" fill="#ff7f0e"/>
<circle cx="218.63" cy="364" r="2.5" fill="#ff7f0e"/>
<circle cx="237.35" cy="364" r="2.5" fill="#ff7f0e"/>
<circle cx="284.12" cy="364" r="2.5" fill="#ff7f0e"/>
<circle cx="330.82" cy="364" r="2.5" fill="#ff7f0e"/>
<circle cx="424.3" cy="364" r="2.5" fill="#ff7f0e"/>
<line x1="604" y1="106" x2="626" y2="106" stroke="#ff7f0e" stroke-width="2"/>
<text x="632" y="106" dy="4">gptq</text>
</svg>
